<svg width="40" height="13" viewBox="0 0 40 13" fill="none" xmlns="http://www.w3.org/2000/svg">
<g id="Nav">
<g id="Group" opacity="0.3">
<path id="Vector" d="M4.28119 4.80605C4.85701 4.89201 5.32054 4.93193 5.66891 4.93193C5.79271 4.93193 5.90211 4.92579 6 4.91657L5.42418 6.22752C5.02399 6.31656 4.55182 6.37796 4.01056 6.41173C3.90115 7.16391 3.84645 7.75645 3.84645 8.18627C3.84645 8.33056 3.85221 8.45951 3.8666 8.56696L2.63724 7.95294C2.55374 7.52619 2.49616 7.02269 2.46449 6.4455C1.72745 6.43015 0.90691 6.38717 0 6.31042C0.299424 5.62885 0.84645 4.95342 1.6382 4.2872C1.91459 4.3486 2.18234 4.40693 2.43858 4.46219C2.45298 3.76834 2.49328 3.00388 2.55374 2.17188C3.1929 2.49117 3.8263 3.07449 4.45106 3.91878C4.3906 4.22886 4.33301 4.52667 4.28119 4.80605Z" fill="#129A7F"/>
</g>
<g id="Group_2" opacity="0.3">
<path id="Vector_2" d="M18.2812 4.80605C18.857 4.89201 19.3205 4.93193 19.6689 4.93193C19.7927 4.93193 19.9021 4.92579 20 4.91657L19.4242 6.22752C19.024 6.31656 18.5518 6.37796 18.0106 6.41173C17.9012 7.16391 17.8465 7.75645 17.8465 8.18627C17.8465 8.33056 17.8522 8.45951 17.8666 8.56696L16.6372 7.95294C16.5537 7.52619 16.4962 7.02269 16.4645 6.4455C15.7274 6.43015 14.9069 6.38717 14 6.31042C14.2994 5.62885 14.8465 4.95342 15.6382 4.2872C15.9146 4.3486 16.1823 4.40693 16.4386 4.46219C16.453 3.76834 16.4933 3.00388 16.5537 2.17188C17.1929 2.49117 17.8263 3.07449 18.4511 3.91878C18.3906 4.22886 18.333 4.52667 18.2812 4.80605Z" fill="#129A7F"/>
</g>
<g id="Group_3">
<path id="Vector_3" d="M36.5624 5.30863C37.714 5.48056 38.6411 5.56038 39.3378 5.56038C39.5854 5.56038 39.8042 5.5481 40 5.52968L38.8484 8.15158C38.048 8.32965 37.1036 8.45245 36.0211 8.51999C35.8023 10.0244 35.6929 11.2094 35.6929 12.0691C35.6929 12.3577 35.7044 12.6156 35.7332 12.8305L33.2745 11.6024C33.1075 10.7489 32.9923 9.74191 32.929 8.58754C31.4549 8.55684 29.8138 8.47087 28 8.31736C28.5988 6.95422 29.6929 5.60337 31.2764 4.27093C31.8292 4.39373 32.3647 4.5104 32.8772 4.62092C32.906 3.23322 32.9866 1.7043 33.1075 0.0402832C34.3858 0.678871 35.6526 1.84552 36.9021 3.5341C36.7812 4.15426 36.666 4.74987 36.5624 5.30863Z" fill="#129A7F"/>
</g>
</g>
</svg>
